<?xml version="1.0" encoding="UTF-8" standalone="no"?>
<!DOCTYPE svg PUBLIC "-//W3C//DTD SVG 20010904//EN"
              "http://www.w3.org/TR/2001/REC-SVG-20010904/DTD/svg10.dtd">

<svg xmlns="http://www.w3.org/2000/svg"
     
     viewBox="0 0 1600 1600">
  <path id="Selection"
        stroke="black" stroke-width="1"
        d="M 213.00,160.06
           C 213.00,160.06 282.00,160.06 282.00,160.06
             282.00,160.06 492.00,160.06 492.00,160.06
             492.00,160.06 1134.00,160.06 1134.00,160.06
             1134.00,160.06 1235.00,160.06 1235.00,160.06
             1235.00,160.06 1288.00,160.06 1288.00,160.06
             1321.80,160.05 1358.40,180.32 1379.54,206.00
             1387.33,215.47 1392.06,224.01 1397.22,235.00
             1403.20,247.75 1407.98,265.90 1408.00,280.00
             1408.00,280.00 1408.00,410.00 1408.00,410.00
             1408.11,418.59 1410.16,419.59 1411.71,427.00
             1411.71,427.00 1417.58,460.00 1417.58,460.00
             1417.58,460.00 1435.58,561.00 1435.58,561.00
             1435.58,561.00 1504.25,948.00 1504.25,948.00
             1504.25,948.00 1525.42,1067.00 1525.42,1067.00
             1525.42,1067.00 1536.00,1132.00 1536.00,1132.00
             1536.00,1132.00 1536.00,1150.00 1536.00,1150.00
             1535.99,1157.94 1535.55,1157.58 1534.25,1165.00
             1527.49,1203.59 1500.79,1240.13 1465.00,1256.69
             1440.84,1267.87 1410.35,1271.63 1384.00,1276.08
             1384.00,1276.08 1275.00,1295.42 1275.00,1295.42
             1275.00,1295.42 645.00,1407.42 645.00,1407.42
             645.00,1407.42 448.00,1442.42 448.00,1442.42
             448.00,1442.42 386.00,1453.42 386.00,1453.42
             364.71,1457.26 353.17,1460.26 331.00,1460.00
             286.84,1459.48 240.73,1429.81 221.89,1390.00
             211.74,1368.55 210.64,1356.51 206.58,1334.00
             206.58,1334.00 198.92,1291.00 198.92,1291.00
             198.92,1291.00 181.42,1193.00 181.42,1193.00
             181.42,1193.00 169.38,1125.00 169.38,1125.00
             167.60,1116.36 164.65,1118.39 153.00,1114.66
             141.58,1110.99 127.80,1104.43 118.00,1097.56
             87.90,1076.47 64.06,1037.48 64.00,1000.00
             64.00,1000.00 64.00,369.00 64.00,369.00
             64.00,369.00 64.00,305.00 64.00,305.00
             64.00,284.99 62.78,271.79 68.43,252.00
             75.15,228.44 86.71,211.09 104.00,194.00
             112.19,185.91 122.59,178.61 133.00,173.64
             150.78,165.14 156.77,163.57 176.00,160.06
             176.00,160.06 213.00,160.06 213.00,160.06 Z
           M 1344.00,345.00
           C 1344.00,345.00 1344.00,309.00 1344.00,309.00
             1344.00,279.10 1343.13,254.68 1316.00,235.72
             1311.04,232.26 1304.81,229.18 1299.00,227.44
             1291.92,225.32 1278.47,224.01 1271.00,224.00
             1271.00,224.00 393.00,224.00 393.00,224.00
             393.00,224.00 201.00,224.00 201.00,224.00
             192.88,224.01 178.56,225.40 171.00,228.09
             139.53,239.27 128.05,265.71 128.00,297.00
             128.00,297.00 128.00,384.00 128.00,384.00
             128.00,384.00 1344.00,384.00 1344.00,384.00
             1344.00,384.00 1344.00,345.00 1344.00,345.00 Z
           M 128.00,544.00
           C 128.00,544.00 128.00,838.00 128.00,838.00
             128.00,838.00 128.00,985.00 128.00,985.00
             128.36,1015.43 140.70,1041.15 171.00,1051.91
             178.56,1054.60 192.88,1055.99 201.00,1056.00
             201.00,1056.00 1079.00,1056.00 1079.00,1056.00
             1079.00,1056.00 1271.00,1056.00 1271.00,1056.00
             1302.29,1055.95 1328.73,1044.47 1339.91,1013.00
             1342.60,1005.44 1343.99,991.12 1344.00,983.00
             1344.00,983.00 1344.00,544.00 1344.00,544.00
             1344.00,544.00 128.00,544.00 128.00,544.00 Z
           M 800.00,640.00
           C 800.00,640.00 800.00,704.00 800.00,704.00
             800.00,704.00 288.00,704.00 288.00,704.00
             288.00,704.00 288.00,640.00 288.00,640.00
             288.00,640.00 800.00,640.00 800.00,640.00 Z
           M 1408.00,804.00
           C 1408.00,804.00 1408.00,852.00 1408.00,852.00
             1408.00,852.00 1408.00,947.00 1408.00,947.00
             1408.00,947.00 1408.00,999.00 1408.00,999.00
             1407.95,1033.52 1387.16,1070.01 1361.00,1091.54
             1352.23,1098.76 1344.16,1103.38 1334.00,1108.25
             1320.26,1114.84 1302.30,1119.98 1287.00,1120.00
             1287.00,1120.00 235.00,1120.00 235.00,1120.00
             235.00,1120.00 244.58,1176.00 244.58,1176.00
             244.58,1176.00 260.58,1266.00 260.58,1266.00
             260.58,1266.00 270.58,1322.00 270.58,1322.00
             272.73,1333.92 274.12,1346.89 279.04,1358.00
             289.39,1381.39 312.75,1395.28 338.00,1395.00
             338.00,1395.00 369.00,1390.41 369.00,1390.41
             369.00,1390.41 425.00,1380.42 425.00,1380.42
             425.00,1380.42 589.00,1351.25 589.00,1351.25
             589.00,1351.25 903.00,1295.42 903.00,1295.42
             903.00,1295.42 1038.00,1271.42 1038.00,1271.42
             1038.00,1271.42 1097.00,1261.00 1097.00,1261.00
             1097.00,1261.00 1173.00,1247.58 1173.00,1247.58
             1173.00,1247.58 1325.00,1220.42 1325.00,1220.42
             1325.00,1220.42 1383.00,1210.20 1383.00,1210.20
             1413.55,1204.34 1443.20,1204.63 1461.77,1175.00
             1464.69,1170.34 1467.00,1165.28 1468.56,1160.00
             1471.20,1151.07 1471.10,1146.08 1471.00,1137.00
             1471.00,1137.00 1466.42,1107.00 1466.42,1107.00
             1466.42,1107.00 1458.08,1060.00 1458.08,1060.00
             1458.08,1060.00 1424.58,871.00 1424.58,871.00
             1424.58,871.00 1414.58,815.00 1414.58,815.00
             1414.58,815.00 1409.00,781.00 1409.00,781.00
             1407.20,785.55 1408.00,798.47 1408.00,804.00 Z" />
</svg>
