<?xml version="1.0" encoding="UTF-8" standalone="no"?>
<!DOCTYPE svg PUBLIC "-//W3C//DTD SVG 20010904//EN"
              "http://www.w3.org/TR/2001/REC-SVG-20010904/DTD/svg10.dtd">

<svg xmlns="http://www.w3.org/2000/svg"
     width="12.5in" height="12.5in"
     viewBox="0 0 900 900">
  <path id="Selection"
        fill="none" stroke="black" stroke-width="1"
        d="M 318.91,173.31
           C 318.91,173.31 337.58,191.14 337.58,191.14
             337.58,191.14 364.00,216.96 364.00,216.96
             364.00,216.96 378.00,230.00 378.00,230.00
             388.82,240.87 393.01,249.97 410.00,250.00
             410.00,250.00 490.00,250.00 490.00,250.00
             504.75,249.98 505.89,244.06 516.01,235.13
             516.01,235.13 528.17,223.42 528.17,223.42
             528.17,223.42 563.04,189.91 563.04,189.91
             568.60,184.50 577.33,173.09 585.00,172.00
             585.00,172.00 593.03,199.00 593.03,199.00
             593.03,199.00 613.88,269.00 613.88,269.00
             613.88,269.00 622.57,299.00 622.57,299.00
             623.06,301.93 623.24,307.11 622.57,310.00
             621.83,313.61 611.05,334.28 608.59,338.58
             608.59,338.58 601.40,352.58 601.40,352.58
             601.12,354.96 603.56,358.08 604.83,359.99
             604.83,359.99 616.14,377.00 616.14,377.00
             616.14,377.00 630.66,399.00 630.66,399.00
             632.50,401.82 635.40,407.39 638.18,408.98
             640.33,410.20 643.57,410.00 646.00,410.00
             646.00,410.00 701.00,410.00 701.00,410.00
             714.08,409.98 717.15,403.85 726.00,395.00
             726.00,395.00 758.04,363.91 758.04,363.91
             760.64,361.39 770.22,351.52 773.07,350.65
             776.63,349.57 777.74,352.28 778.70,355.02
             778.70,355.02 784.33,373.00 784.33,373.00
             784.33,373.00 794.72,408.00 794.72,408.00
             794.72,408.00 801.66,431.00 801.66,431.00
             803.48,437.98 807.67,447.83 806.81,455.00
             806.16,460.43 797.65,475.24 794.75,481.00
             793.26,483.97 789.97,488.76 790.69,492.00
             791.23,494.43 796.92,502.38 798.64,504.83
             798.64,504.83 812.37,525.72 812.37,525.72
             814.59,529.06 820.12,536.02 819.31,539.99
             818.77,542.61 815.94,545.20 814.20,547.17
             814.20,547.17 804.05,558.96 804.05,558.96
             804.05,558.96 777.95,587.99 777.95,587.99
             777.95,587.99 765.29,601.09 765.29,601.09
             758.35,609.28 756.85,617.50 752.81,627.00
             752.81,627.00 748.86,635.00 748.86,635.00
             748.86,635.00 733.40,671.00 733.40,671.00
             733.40,671.00 720.15,704.58 720.15,704.58
             711.21,718.60 691.58,728.80 675.00,728.85
             675.00,728.85 662.00,728.85 662.00,728.85
             650.84,727.24 634.86,720.14 627.19,711.91
             618.74,702.85 614.44,686.35 609.91,675.00
             609.91,675.00 591.13,630.72 591.13,630.72
             591.13,630.72 582.45,610.00 582.45,610.00
             579.74,604.67 564.82,588.92 560.00,583.42
             555.04,577.78 544.06,563.87 538.00,561.00
             538.00,561.00 526.58,590.00 526.58,590.00
             519.75,607.32 516.54,624.69 502.08,637.67
             492.46,646.32 471.00,656.93 458.00,657.00
             458.00,657.00 444.00,657.00 444.00,657.00
             434.85,656.99 433.49,655.45 425.00,652.86
             416.30,650.21 404.36,645.07 397.73,638.75
             383.57,625.26 379.95,608.41 373.19,591.00
             370.18,583.26 363.35,568.44 362.00,561.00
             354.83,566.18 349.86,573.58 343.91,580.00
             343.91,580.00 320.13,606.00 320.13,606.00
             320.13,606.00 312.70,623.00 312.70,623.00
             312.70,623.00 296.81,659.00 296.81,659.00
             296.81,659.00 290.66,674.00 290.66,674.00
             285.40,687.82 281.69,703.44 270.54,713.88
             262.67,721.24 254.08,724.39 244.00,727.49
             237.70,729.43 232.50,729.07 226.00,729.00
             209.94,728.81 190.21,719.62 181.30,706.00
             175.70,697.43 170.94,681.36 166.80,671.00
             166.80,671.00 145.26,620.09 145.26,620.09
             143.65,616.39 141.69,611.23 139.61,608.00
             136.62,603.35 130.49,597.08 126.65,592.72
             126.65,592.72 97.66,560.17 97.66,560.17
             94.53,556.62 82.41,544.10 81.06,541.00
             79.09,536.44 84.54,530.74 86.95,527.00
             86.95,527.00 103.42,502.00 103.42,502.00
             105.23,499.23 109.29,494.11 109.63,491.00
             110.03,487.39 106.14,482.16 104.37,478.96
             100.25,471.55 92.60,459.46 93.33,451.00
             94.09,442.15 98.82,430.67 101.43,422.00
             101.43,422.00 115.00,376.00 115.00,376.00
             115.00,376.00 120.82,357.00 120.82,357.00
             121.39,355.23 122.26,351.07 123.73,350.04
             126.05,348.42 128.80,350.70 130.42,352.23
             130.42,352.23 143.83,365.58 143.83,365.58
             143.83,365.58 171.00,391.99 171.00,391.99
             181.89,402.73 185.51,409.97 202.00,410.00
             202.00,410.00 252.00,410.00 252.00,410.00
             254.77,410.00 258.36,410.22 260.82,408.83
             264.01,407.01 268.49,399.44 270.56,396.08
             270.56,396.08 284.40,375.01 284.40,375.01
             284.40,375.01 294.34,360.00 294.34,360.00
             295.66,357.99 298.03,355.23 297.78,352.72
             297.58,350.70 292.89,342.23 291.67,340.00
             288.60,334.42 277.67,314.96 276.50,310.00
             275.82,306.92 275.91,303.10 276.50,300.00
             276.50,300.00 285.43,270.00 285.43,270.00
             285.43,270.00 287.37,262.00 287.37,262.00
             287.37,262.00 301.14,217.00 301.14,217.00
             301.14,217.00 303.34,208.28 303.34,208.28
             305.96,200.19 313.25,179.27 314.00,172.00
             315.96,172.27 317.09,172.31 318.91,173.31 Z
           M 315.80,226.00
           C 315.80,226.00 299.72,279.00 299.72,279.00
             298.02,284.70 292.46,301.09 293.40,306.00
             294.05,309.38 296.93,313.82 298.58,317.00
             298.58,317.00 311.26,341.00 311.26,341.00
             313.06,344.50 317.79,351.27 317.28,355.00
             316.88,357.98 310.94,366.09 309.00,369.00
             309.00,369.00 289.14,399.00 289.14,399.00
             286.69,402.80 279.83,410.51 281.77,415.00
             282.93,417.68 288.74,423.63 290.92,426.00
             290.92,426.00 309.91,447.00 309.91,447.00
             317.75,455.45 344.56,485.05 349.62,493.00
             349.62,493.00 359.70,515.00 359.70,515.00
             359.70,515.00 384.58,574.00 384.58,574.00
             388.38,583.98 397.20,609.51 402.10,617.00
             412.56,632.98 433.40,641.21 452.00,641.00
             458.54,640.92 461.90,639.72 468.00,637.67
             476.03,634.96 485.90,630.01 491.83,623.91
             501.29,614.16 502.94,604.90 507.42,593.00
             507.42,593.00 516.45,570.00 516.45,570.00
             516.45,570.00 543.00,509.00 543.00,509.00
             545.87,501.84 548.18,494.44 552.52,488.00
             557.46,480.66 566.58,472.56 572.99,466.00
             572.99,466.00 597.27,439.00 597.27,439.00
             597.27,439.00 611.28,423.00 611.28,423.00
             613.00,421.03 616.68,417.28 617.55,415.00
             619.28,410.51 612.03,401.79 609.51,398.00
             609.51,398.00 589.67,368.00 589.67,368.00
             587.81,365.22 582.43,357.93 582.09,355.00
             581.71,351.81 586.17,344.06 587.78,341.00
             587.78,341.00 601.24,316.00 601.24,316.00
             602.51,313.51 605.76,307.43 606.19,305.00
             606.75,301.84 605.06,297.10 604.12,294.00
             604.12,294.00 598.02,274.00 598.02,274.00
             598.02,274.00 583.88,227.00 583.88,227.00
             583.88,227.00 576.00,202.00 576.00,202.00
             570.04,206.27 565.34,211.93 560.00,216.91
             560.00,216.91 531.00,245.00 531.00,245.00
             519.55,256.45 511.17,265.97 494.00,266.00
             494.00,266.00 405.00,266.00 405.00,266.00
             384.90,265.75 378.48,254.34 366.00,242.01
             366.00,242.01 357.00,233.91 357.00,233.91
             357.00,233.91 339.00,216.04 339.00,216.04
             339.00,216.04 324.00,202.00 324.00,202.00
             320.63,206.20 317.58,220.17 315.80,226.00 Z
           M 400.00,394.37
           C 400.00,394.37 369.00,386.42 369.00,386.42
             366.00,385.59 353.54,383.59 352.82,380.69
             352.26,378.39 354.63,375.65 355.94,374.00
             355.94,374.00 368.43,359.06 368.43,359.06
             370.26,357.11 372.09,355.17 375.00,356.17
             376.82,356.79 384.90,363.99 387.00,365.75
             387.00,365.75 411.00,386.42 411.00,386.42
             415.57,390.31 420.25,393.10 422.00,399.00
             414.52,398.65 407.23,396.20 400.00,394.37 Z
           M 488.00,386.58
           C 488.00,386.58 512.00,365.92 512.00,365.92
             514.80,363.58 521.72,356.96 525.00,356.58
             527.89,356.23 529.76,358.13 531.57,360.06
             531.57,360.06 543.23,374.00 543.23,374.00
             544.56,375.69 546.91,378.35 546.26,380.70
             545.41,383.74 533.17,385.54 530.00,386.42
             530.00,386.42 476.00,400.00 476.00,400.00
             477.79,393.95 483.33,390.56 488.00,386.58 Z
           M 126.48,396.00
           C 126.48,396.00 114.71,435.00 114.71,435.00
             113.31,439.83 109.37,449.53 110.71,454.00
             110.71,454.00 124.78,481.00 124.78,481.00
             126.45,484.19 129.79,489.34 129.09,493.00
             128.59,495.62 124.18,501.48 122.51,504.00
             122.51,504.00 108.00,526.00 108.00,526.00
             106.12,528.82 100.88,535.19 101.96,538.58
             102.63,540.68 107.20,545.17 108.84,547.00
             108.84,547.00 125.92,566.00 125.92,566.00
             132.40,573.04 148.89,590.93 153.45,598.00
             157.20,603.80 159.80,611.59 162.70,618.00
             162.70,618.00 180.94,661.00 180.94,661.00
             185.04,671.80 191.52,693.33 199.09,700.91
             204.17,705.99 209.45,708.03 216.00,710.41
             220.71,712.12 222.91,712.87 228.00,712.99
             241.71,713.30 257.41,705.78 264.73,694.00
             264.73,694.00 277.74,661.00 277.74,661.00
             277.74,661.00 293.14,626.00 293.14,626.00
             293.14,626.00 303.44,601.00 303.44,601.00
             308.37,589.92 318.71,581.63 326.96,573.00
             326.96,573.00 340.42,558.00 340.42,558.00
             343.14,554.87 351.45,546.66 352.07,543.00
             352.48,540.55 350.62,537.25 349.65,535.00
             349.65,535.00 342.30,518.00 342.30,518.00
             342.30,518.00 336.54,505.00 336.54,505.00
             329.29,492.48 300.16,461.55 288.83,449.00
             288.83,449.00 275.08,434.00 275.08,434.00
             273.11,431.86 270.47,428.33 267.96,427.02
             265.64,425.81 262.57,426.01 260.00,426.00
             260.00,426.00 235.00,426.00 235.00,426.00
             235.00,426.00 222.00,425.03 222.00,425.03
             222.00,425.03 208.00,426.00 208.00,426.00
             199.17,426.01 189.30,426.57 181.00,423.05
             172.07,419.26 167.47,412.54 161.00,406.00
             161.00,406.00 133.00,379.00 133.00,379.00
             128.96,383.69 128.35,390.26 126.48,396.00 Z
           M 754.00,392.00
           C 754.00,392.00 739.00,406.00 739.00,406.00
             726.37,418.58 721.92,425.97 703.00,426.00
             703.00,426.00 677.00,426.00 677.00,426.00
             677.00,426.00 662.00,425.09 662.00,425.09
             662.00,425.09 650.00,426.00 650.00,426.00
             650.00,426.00 639.00,426.00 639.00,426.00
             637.11,426.00 634.00,425.86 632.28,426.57
             629.00,427.93 616.78,442.44 613.73,446.00
             613.73,446.00 587.91,475.00 587.91,475.00
             587.91,475.00 574.21,489.00 574.21,489.00
             569.13,494.94 562.27,506.64 559.47,514.00
             559.47,514.00 551.19,533.00 551.19,533.00
             550.24,535.29 547.94,539.68 548.11,542.00
             548.43,546.18 559.68,557.48 562.92,561.00
             572.39,571.30 592.06,591.38 597.74,603.00
             597.74,603.00 605.86,622.00 605.86,622.00
             605.86,622.00 625.19,668.00 625.19,668.00
             627.90,675.03 631.90,688.22 635.47,694.00
             642.17,704.86 656.30,712.41 669.00,712.96
             682.15,713.53 698.41,706.13 705.61,695.00
             709.19,689.48 714.18,674.07 717.00,667.00
             717.00,667.00 736.31,622.00 736.31,622.00
             741.22,611.27 744.28,598.99 752.18,590.00
             752.18,590.00 764.91,577.00 764.91,577.00
             764.91,577.00 786.42,553.00 786.42,553.00
             788.68,550.38 796.94,541.54 797.85,539.00
             799.24,535.14 794.10,529.16 792.00,526.00
             792.00,526.00 778.19,505.00 778.19,505.00
             776.46,502.47 771.57,495.64 771.03,493.00
             770.31,489.54 773.65,484.11 775.26,481.00
             775.26,481.00 785.26,462.00 785.26,462.00
             786.77,459.07 789.39,455.20 789.69,452.00
             790.01,448.65 784.97,433.21 783.66,429.00
             783.66,429.00 769.00,379.00 769.00,379.00
             763.01,381.83 758.64,387.38 754.00,392.00 Z
           M 163.75,497.02
           C 165.68,494.82 167.71,492.05 171.00,493.16
             172.90,493.80 179.07,499.31 181.00,500.92
             181.00,500.92 198.00,515.57 198.00,515.57
             202.43,519.34 206.27,521.24 208.00,527.00
             208.00,527.00 153.00,514.00 153.00,514.00
             153.96,507.16 159.34,502.05 163.75,497.02 Z
           M 702.00,515.58
           C 702.00,515.58 719.00,500.92 719.00,500.92
             720.92,499.31 727.10,493.80 729.00,493.16
             732.29,492.05 734.32,494.82 736.25,497.02
             740.66,502.05 746.04,507.16 747.00,514.00
             747.00,514.00 692.00,527.00 692.00,527.00
             693.72,521.28 697.58,519.31 702.00,515.58 Z
           M 267.00,509.92
           C 267.00,509.92 282.00,497.02 282.00,497.02
             284.24,495.18 286.84,492.88 289.99,493.71
             293.20,494.55 297.41,500.39 299.59,503.00
             300.90,504.56 304.22,508.23 304.84,509.95
             306.69,515.10 296.29,515.87 293.00,516.73
             293.00,516.73 250.00,527.00 250.00,527.00
             251.85,521.37 262.23,513.91 267.00,509.92 Z
           M 607.00,516.87
           C 603.73,516.05 593.35,514.97 595.16,509.95
             595.78,508.23 599.10,504.56 600.41,503.00
             602.59,500.39 606.80,494.55 610.01,493.71
             613.16,492.88 615.76,495.18 618.00,497.02
             618.00,497.02 633.00,509.92 633.00,509.92
             637.77,513.91 648.15,521.37 650.00,527.00
             650.00,527.00 607.00,516.87 607.00,516.87 Z
           M 475.00,583.00
           C 473.21,589.60 462.06,602.86 457.47,609.00
             454.30,613.25 453.26,616.32 448.00,618.00
             448.00,618.00 432.85,597.00 432.85,597.00
             429.04,591.83 425.92,589.60 425.00,583.00
             425.00,583.00 475.00,583.00 475.00,583.00 Z
           M 249.00,671.00
           C 247.03,678.26 239.81,685.88 235.29,692.00
             233.62,694.26 231.37,698.12 228.00,696.83
             225.54,695.90 223.10,692.09 221.58,690.00
             217.56,684.49 211.07,677.74 210.00,671.00
             210.00,671.00 249.00,671.00 249.00,671.00 Z
           M 690.00,671.00
           C 689.02,677.16 680.96,686.71 676.99,692.00
             675.32,694.21 672.58,698.16 669.30,696.83
             667.28,696.01 664.60,691.81 663.27,690.00
             658.93,684.13 652.93,678.14 651.00,671.00
             651.00,671.00 690.00,671.00 690.00,671.00 Z" />
</svg>
