<?xml version="1.0" encoding="UTF-8" standalone="no"?>
<!DOCTYPE svg PUBLIC "-//W3C//DTD SVG 20010904//EN"
              "http://www.w3.org/TR/2001/REC-SVG-20010904/DTD/svg10.dtd">

<svg xmlns="http://www.w3.org/2000/svg"
     
     viewBox="0 0 512 512">
  <path id="Selection"
        stroke-width="1"
        d="M 256.46,70.00
           C 256.46,70.00 237.09,101.00 237.09,101.00
             237.09,101.00 230.72,113.00 230.72,113.00
             230.72,113.00 217.43,135.00 217.43,135.00
             217.43,135.00 205.60,156.00 205.60,156.00
             205.60,156.00 197.20,169.00 197.20,169.00
             197.20,169.00 188.42,184.00 188.42,184.00
             186.93,186.20 183.81,191.82 181.67,192.92
             177.88,194.88 166.19,185.99 162.00,184.02
             162.00,184.02 130.00,165.45 130.00,165.45
             130.00,165.45 109.00,154.00 109.00,154.00
             105.65,151.99 93.61,146.13 92.81,142.82
             92.09,139.87 96.84,132.73 98.42,130.00
             98.42,130.00 106.91,117.00 106.91,117.00
             106.91,117.00 112.45,107.00 112.45,107.00
             112.45,107.00 119.92,96.00 119.92,96.00
             119.92,96.00 139.58,64.00 139.58,64.00
             143.55,57.16 149.30,46.83 156.04,42.61
             165.78,36.52 183.62,38.00 195.00,38.00
             195.00,38.00 217.00,38.00 217.00,38.00
             217.00,38.00 234.00,39.00 234.00,39.00
             234.00,39.00 280.00,39.00 280.00,39.00
             277.69,47.11 262.26,60.61 256.46,70.00 Z
           M 295.88,143.00
           C 295.88,143.00 275.34,107.00 275.34,107.00
             272.94,102.70 263.90,89.94 263.64,86.00
             263.39,82.26 270.38,73.43 272.67,70.00
             275.19,66.22 278.23,61.32 281.18,58.00
             290.77,47.22 306.28,38.18 321.00,38.00
             326.17,37.94 331.99,37.68 337.00,38.90
             353.71,42.96 369.14,57.76 377.94,72.00
             381.16,77.22 386.13,86.40 388.58,92.00
             389.73,94.63 391.36,99.52 394.21,100.65
             396.58,101.59 400.81,99.84 403.00,98.83
             408.65,96.21 413.90,92.45 420.00,91.00
             418.62,96.77 413.19,104.56 409.99,110.00
             409.99,110.00 396.95,132.00 396.95,132.00
             396.95,132.00 385.81,149.00 385.81,149.00
             383.21,153.24 378.32,163.64 373.91,165.40
             372.12,166.12 368.97,166.00 367.00,166.00
             367.00,166.00 333.00,167.00 333.00,167.00
             333.00,167.00 322.00,166.02 322.00,166.02
             322.00,166.02 305.00,166.02 305.00,166.02
             305.00,166.02 288.00,167.00 288.00,167.00
             288.00,167.00 288.98,164.68 288.98,164.68
             288.98,164.68 302.00,157.00 302.00,157.00
             302.00,157.00 295.88,143.00 295.88,143.00 Z
           M 420.58,362.00
           C 420.58,362.00 412.78,345.00 412.78,345.00
             412.78,345.00 400.14,320.00 400.14,320.00
             400.14,320.00 386.43,297.00 386.43,297.00
             386.43,297.00 370.00,268.00 370.00,268.00
             370.00,268.00 359.11,248.00 359.11,248.00
             359.11,248.00 350.76,233.00 350.76,233.00
             349.33,230.19 344.31,221.68 344.54,219.09
             344.92,214.77 357.24,209.15 361.00,207.00
             361.00,207.00 413.00,177.00 413.00,177.00
             413.00,177.00 426.00,168.88 426.00,168.88
             427.92,167.72 430.37,166.11 432.67,167.15
             435.28,168.34 439.31,176.28 440.77,179.00
             440.77,179.00 458.25,212.00 458.25,212.00
             458.25,212.00 471.42,238.00 471.42,238.00
             475.42,245.07 483.15,255.73 485.21,263.00
             486.27,266.72 486.05,272.98 486.00,277.00
             485.83,289.71 475.13,303.59 468.59,314.00
             468.59,314.00 462.29,325.00 462.29,325.00
             462.29,325.00 445.72,351.00 445.72,351.00
             445.72,351.00 428.00,381.00 428.00,381.00
             428.00,381.00 426.00,381.00 426.00,381.00
             426.00,381.00 420.58,362.00 420.58,362.00 Z
           M 57.00,193.00
           C 57.00,193.00 72.00,194.00 72.00,194.00
             72.00,194.00 89.00,194.00 89.00,194.00
             89.00,194.00 104.00,195.00 104.00,195.00
             104.00,195.00 110.00,195.00 110.00,195.00
             111.91,195.00 115.09,194.88 116.82,195.60
             120.34,197.07 126.31,207.42 128.38,211.00
             128.38,211.00 133.62,221.00 133.62,221.00
             133.62,221.00 152.78,254.00 152.78,254.00
             155.74,259.61 160.12,265.09 162.00,271.00
             157.27,269.62 149.38,264.41 146.04,265.41
             142.52,266.47 137.43,274.79 135.42,278.00
             135.42,278.00 122.15,301.00 122.15,301.00
             122.15,301.00 113.31,316.00 113.31,316.00
             111.34,319.64 107.13,329.83 103.62,331.36
             100.89,332.67 94.98,331.64 92.00,331.36
             92.00,331.36 79.00,330.42 79.00,330.42
             71.94,329.49 69.55,330.13 62.00,327.64
             45.35,322.16 26.23,304.57 26.00,286.00
             26.00,286.00 26.00,270.00 26.00,270.00
             26.02,255.76 32.62,241.92 40.06,230.00
             40.06,230.00 50.89,213.01 50.89,213.01
             51.97,209.33 48.60,207.22 46.00,205.29
             40.88,201.49 33.12,198.57 30.00,193.00
             30.00,193.00 57.00,193.00 57.00,193.00 Z
           M 316.00,342.00
           C 316.00,342.00 343.00,344.00 343.00,344.00
             343.00,344.00 390.00,344.00 390.00,344.00
             399.81,344.02 397.85,344.29 405.22,360.00
             414.15,379.04 418.01,395.93 409.14,416.00
             407.20,420.38 403.87,426.38 400.68,429.91
             389.58,442.16 367.22,448.97 351.00,449.00
             351.00,449.00 333.00,449.00 333.00,449.00
             328.16,448.98 320.68,448.14 316.00,447.00
             316.00,447.00 314.00,475.00 314.00,475.00
             309.20,473.38 308.42,470.21 306.00,466.00
             306.00,466.00 294.14,444.00 294.14,444.00
             294.14,444.00 276.52,411.00 276.52,411.00
             274.68,407.15 270.91,402.36 271.74,398.00
             272.23,395.43 274.79,391.48 276.03,389.00
             276.03,389.00 285.95,371.00 285.95,371.00
             285.95,371.00 313.00,324.00 313.00,324.00
             315.56,327.48 315.90,337.42 316.00,342.00 Z
           M 78.00,344.39
           C 78.00,344.39 110.00,347.00 110.00,347.00
             110.00,347.00 125.00,348.00 125.00,348.00
             125.00,348.00 220.00,348.00 220.00,348.00
             220.00,348.00 239.00,349.00 239.00,349.00
             239.00,349.00 239.00,433.00 239.00,433.00
             239.00,433.00 240.00,452.00 240.00,452.00
             240.00,452.00 207.00,452.00 207.00,452.00
             207.00,452.00 195.00,451.04 195.00,451.04
             195.00,451.04 184.00,451.04 184.00,451.04
             184.00,451.04 169.00,449.96 169.00,449.96
             169.00,449.96 157.00,449.96 157.00,449.96
             157.00,449.96 151.00,449.34 151.00,449.34
             151.00,449.34 142.00,450.00 142.00,450.00
             135.40,450.07 125.79,449.30 120.00,446.04
             112.27,441.68 106.39,432.48 101.81,425.00
             101.81,425.00 86.87,397.00 86.87,397.00
             86.87,397.00 75.14,376.00 75.14,376.00
             75.14,376.00 63.14,354.00 63.14,354.00
             60.02,348.70 57.26,346.21 56.00,340.00
             56.00,340.00 78.00,344.39 78.00,344.39 Z" />
</svg>
