<?xml version="1.0" encoding="utf-8"?>
<!-- Generated by IcoMoon.io -->
<!DOCTYPE svg PUBLIC "-//W3C//DTD SVG 1.1//EN" "http://www.w3.org/Graphics/SVG/1.1/DTD/svg11.dtd">
<svg version="1.1" xmlns="http://www.w3.org/2000/svg" xmlns:xlink="http://www.w3.org/1999/xlink" width="32" height="32" viewBox="0 0 32 32">
<path d="M27.188 27.313h-22.375v-21.125h6.438v-2.625h2.188v2.625h5.063v-2.625h2.25v2.625h6.375v21.125h0.063zM7.063 25.063h17.875v-16.625h-17.875v16.625zM21 21.875h-2.063v-6.875c-0.625 0.563-1.438 1-2.313 1.25l-0.125 0.063v-1.938h0.063c0.5-0.125 1-0.438 1.563-0.875s0.938-0.938 1.125-1.5l0.063-0.063h1.688v9.938zM14.188 21.875h-2.063v-6.875c-0.688 0.563-1.438 1-2.313 1.25l-0.125 0.063v-1.938h0.063c0.5-0.125 1-0.438 1.563-0.875s0.938-0.938 1.125-1.5v-0.063h1.688v9.938h0.063z"></path>
</svg>
