<?xml version="1.0" encoding="utf-8"?>
<!-- Generated by IcoMoon.io -->
<!DOCTYPE svg PUBLIC "-//W3C//DTD SVG 1.1//EN" "http://www.w3.org/Graphics/SVG/1.1/DTD/svg11.dtd">
<svg version="1.1" xmlns="http://www.w3.org/2000/svg" xmlns:xlink="http://www.w3.org/1999/xlink" width="32" height="32" viewBox="0 0 32 32">
<path d="M23.25 4.25h-14.5c-2.5 0-4.563 2.063-4.563 4.563v14.5c0 2.5 2.063 4.563 4.563 4.563h14.5c2.5 0 4.563-2.063 4.563-4.563v-14.5c0-2.5-2.063-4.563-4.563-4.563zM24.563 7h0.5v4h-4v-4h3.5zM12.625 13.625c0.75-1 2-1.688 3.375-1.688s2.625 0.688 3.375 1.688c0.5 0.688 0.75 1.563 0.75 2.438 0 2.313-1.813 4.125-4.125 4.125s-4.125-1.813-4.125-4.125c0-0.875 0.25-1.75 0.75-2.438zM25.5 23.313c0 1.25-1 2.25-2.25 2.25h-14.5c-1.25 0-2.25-1-2.25-2.25v-9.688h3.5c-0.25 0.75-0.438 1.563-0.438 2.438 0 3.563 2.875 6.438 6.438 6.438s6.438-2.875 6.438-6.438c0-0.875-0.188-1.688-0.438-2.438h3.5v9.688z"></path>
</svg>
