<?xml version="1.0" encoding="utf-8"?>
<!-- Generated by IcoMoon.io -->
<!DOCTYPE svg PUBLIC "-//W3C//DTD SVG 1.1//EN" "http://www.w3.org/Graphics/SVG/1.1/DTD/svg11.dtd">
<svg version="1.1" xmlns="http://www.w3.org/2000/svg" xmlns:xlink="http://www.w3.org/1999/xlink" width="32" height="32" viewBox="0 0 32 32">
<path d="M16.875 14.938v0zM26 4.25h-20c-0.938 0-1.75 0.75-1.75 1.688v20.25c0 0.938 0.813 1.688 1.75 1.688h20c0.938 0 1.75-0.75 1.75-1.688v-20.25c0-0.938-0.813-1.688-1.75-1.688zM11.375 24h-3.563v-10.625h3.563v10.625zM9.625 11.938h-0.063c-1.188 0-1.938-0.875-1.938-1.875 0-1.063 0.813-1.813 2-1.813 1.25 0 2 0.75 2 1.813 0 1-0.75 1.875-2 1.875zM24.125 24h-3.5v-5.688c0-1.438-0.5-2.375-1.813-2.375-1 0-1.563 0.625-1.813 1.25-0.063 0.25-0.125 0.563-0.125 0.875v5.938h-3.563s0.063-9.625 0-10.625h3.563v1.5c0.5-0.75 1.313-1.75 3.188-1.75 2.313 0 4.063 1.5 4.063 4.813v6.063z"></path>
</svg>
