<?xml version="1.0" encoding="utf-8"?>
<!-- Generated by IcoMoon.io -->
<!DOCTYPE svg PUBLIC "-//W3C//DTD SVG 1.1//EN" "http://www.w3.org/Graphics/SVG/1.1/DTD/svg11.dtd">
<svg version="1.1" xmlns="http://www.w3.org/2000/svg" xmlns:xlink="http://www.w3.org/1999/xlink" width="32" height="32" viewBox="0 0 32 32">
<path d="M2 2v28h28v-28h-28zM21.188 20.625l-5.063 5.063c-0.625 0.625-1.375 0.938-2.188 0.938-0.875 0-1.625-0.313-2.25-0.938v0l-3.25-3.25c-1.188-1.188-1.188-3.188 0-4.375l0.688-0.688 1.688 1.625-0.688 0.688c-0.313 0.313-0.313 0.813 0 1.063l3.25 3.25c0.125 0.188 0.313 0.25 0.563 0.25 0.188 0 0.375-0.063 0.5-0.25l5.063-5c0.313-0.313 0.313-0.813 0-1.063l-2.688-2.688 1.688-1.688 2.688 2.688c1.188 1.188 1.188 3.188 0 4.375zM23.563 14l-0.688 0.688-1.688-1.688 0.688-0.688c0.125-0.125 0.25-0.313 0.25-0.563 0-0.188-0.125-0.375-0.25-0.5l-3.25-3.25c-0.313-0.313-0.75-0.313-1.063 0l-5.063 5c-0.125 0.188-0.188 0.375-0.188 0.563s0.063 0.375 0.188 0.563l2.688 2.625-1.688 1.688-2.688-2.688c-0.563-0.563-0.875-1.375-0.875-2.188s0.313-1.625 0.875-2.188l5.063-5.063c1.25-1.188 3.188-1.188 4.438 0l3.25 3.25c0.563 0.563 0.875 1.375 0.875 2.188 0 0.875-0.313 1.625-0.875 2.25z"></path>
</svg>
