<?xml version="1.0" encoding="utf-8"?>
<!-- Generated by IcoMoon.io -->
<!DOCTYPE svg PUBLIC "-//W3C//DTD SVG 1.1//EN" "http://www.w3.org/Graphics/SVG/1.1/DTD/svg11.dtd">
<svg version="1.1" xmlns="http://www.w3.org/2000/svg" xmlns:xlink="http://www.w3.org/1999/xlink" width="32" height="32" viewBox="0 0 32 32">
<path d="M28.625 7.5v14.375h-22.688v-14.813h22.625zM29.875 5.75h-25.188v17.563h25.25zM7.5 20.188l5.938-10.125 3.813 5.5 2.625-2.75 5.688 7.375h-18.063zM25.188 10.75c0 1-0.813 1.875-1.813 1.875-1.063 0-1.875-0.875-1.875-1.875s0.813-1.875 1.875-1.875c1 0 1.813 0.875 1.813 1.875zM1.438 8.625h2.313v1.375h-2.313v-1.375zM1.438 8.625h1.313v17.5h-1.313v-17.5zM1.438 24.813h26.688v1.375h-26.688v-1.375zM26.75 24h1.375v2.125h-1.375v-2.125z"></path>
</svg>
