<?xml version="1.0" encoding="utf-8"?>
<!-- Generated by IcoMoon.io -->
<!DOCTYPE svg PUBLIC "-//W3C//DTD SVG 1.1//EN" "http://www.w3.org/Graphics/SVG/1.1/DTD/svg11.dtd">
<svg version="1.1" xmlns="http://www.w3.org/2000/svg" xmlns:xlink="http://www.w3.org/1999/xlink" width="32" height="32" viewBox="0 0 32 32">
<path d="M16.563 4.25c-6.438 0-9.688 4.625-9.688 8.438 0 2.375 0.875 4.438 2.75 5.188 0.313 0.125 0.625 0 0.688-0.313 0.063-0.25 0.25-0.875 0.313-1.125 0.063-0.313 0.063-0.438-0.188-0.75-0.563-0.625-0.938-1.438-0.938-2.625 0-3.438 2.563-6.5 6.688-6.5 3.625 0 5.625 2.25 5.625 5.188 0 3.938-1.75 7.188-4.313 7.188-1.375 0-2.438-1.188-2.125-2.563 0.438-1.75 1.188-3.563 1.188-4.813 0-1.125-0.563-2.063-1.813-2.063-1.438 0-2.625 1.5-2.625 3.5 0 1.313 0.438 2.188 0.438 2.188s-1.438 6.25-1.75 7.313c-0.5 2.188-0.063 4.875 0 5.188 0 0.125 0.188 0.188 0.313 0.063 0.125-0.188 1.875-2.313 2.438-4.438 0.188-0.625 0.938-3.688 0.938-3.688 0.5 0.875 1.875 1.688 3.313 1.688 4.375 0 7.313-4 7.313-9.313 0-4-3.438-7.75-8.563-7.75z"></path>
</svg>
