<?xml version="1.0" encoding="utf-8"?>
<!-- Generated by IcoMoon.io -->
<!DOCTYPE svg PUBLIC "-//W3C//DTD SVG 1.1//EN" "http://www.w3.org/Graphics/SVG/1.1/DTD/svg11.dtd">
<svg version="1.1" xmlns="http://www.w3.org/2000/svg" xmlns:xlink="http://www.w3.org/1999/xlink" width="32" height="32" viewBox="0 0 32 32">
<path d="M27.688 27.313h-5.438v-2.375h3.063v-17.688h-18.625v17.688h3.063v2.375h-5.438v-22.438h23.375v22.438zM14.188 13.125c0.5-0.438 1.125-0.625 1.938-0.625s1.438 0.188 1.875 0.625 0.688 0.938 0.688 1.5c0 0.438-0.125 0.813-0.375 1.125-0.188 0.25-0.688 0.688-1.563 1.438-0.875 0.688-1.5 1.375-1.75 1.938-0.313 0.563-0.438 1.313-0.438 2.188v0.688h2.75c-0.063-0.813 0-1.375 0.188-1.688 0.125-0.375 0.563-0.75 1.188-1.313 1.25-1 2.063-1.875 2.438-2.438s0.563-1.188 0.563-1.875c0-1.188-0.563-2.25-1.563-3.188-1-0.875-2.375-1.375-4.125-1.375-1.625 0-3 0.5-4 1.375s-1.563 2-1.625 3.25l2.75 0.375c0.188-0.875 0.563-1.5 1.063-2zM14.563 25h3v2.313h-3v-2.313z"></path>
</svg>
