<?xml version="1.0" encoding="utf-8"?>
<!-- Generated by IcoMoon.io -->
<!DOCTYPE svg PUBLIC "-//W3C//DTD SVG 1.1//EN" "http://www.w3.org/Graphics/SVG/1.1/DTD/svg11.dtd">
<svg version="1.1" xmlns="http://www.w3.org/2000/svg" xmlns:xlink="http://www.w3.org/1999/xlink" width="32" height="32" viewBox="0 0 32 32">
<path d="M7.313 21.5c-1.688 0-3.125 1.438-3.125 3.125 0 1.75 1.438 3.125 3.125 3.125 1.75 0 3.188-1.375 3.188-3.125 0-1.688-1.438-3.125-3.188-3.125zM4.188 12.25v4.5c2.938 0 5.75 1.125 7.813 3.25 2.063 2.063 3.25 4.813 3.25 7.813h4.5c0-8.625-6.938-15.563-15.563-15.563zM4.188 4.188v4.563c10.5 0 19.063 8.563 19.063 19.063h4.563c0-13-10.625-23.625-23.625-23.625z"></path>
</svg>
