<?xml version="1.0" encoding="utf-8"?>
<!-- Generated by IcoMoon.io -->
<!DOCTYPE svg PUBLIC "-//W3C//DTD SVG 1.1//EN" "http://www.w3.org/Graphics/SVG/1.1/DTD/svg11.dtd">
<svg version="1.1" xmlns="http://www.w3.org/2000/svg" xmlns:xlink="http://www.w3.org/1999/xlink" width="32" height="32" viewBox="0 0 32 32">
<path d="M27.875 25l-7.125-7.188c0.938-1.438 1.438-3.125 1.438-4.875 0-2.375-0.938-4.688-2.688-6.375-1.688-1.688-3.938-2.625-6.375-2.625s-4.688 0.938-6.375 2.625c-1.75 1.688-2.688 4-2.688 6.375 0 2.438 0.938 4.688 2.688 6.438 1.688 1.688 3.938 2.625 6.375 2.625 1.75 0 3.438-0.5 4.875-1.438l7.125 7.125zM8.875 17.188c-1.125-1.125-1.75-2.625-1.75-4.25 0-1.563 0.625-3.063 1.75-4.188 1.125-1.188 2.625-1.75 4.25-1.75s3.125 0.563 4.25 1.75c1.125 1.125 1.75 2.625 1.75 4.188 0 1.625-0.625 3.125-1.75 4.25s-2.625 1.75-4.25 1.75-3.125-0.625-4.25-1.75z"></path>
</svg>
