<?xml version="1.0" encoding="utf-8"?>
<!-- Generated by IcoMoon.io -->
<!DOCTYPE svg PUBLIC "-//W3C//DTD SVG 1.1//EN" "http://www.w3.org/Graphics/SVG/1.1/DTD/svg11.dtd">
<svg version="1.1" xmlns="http://www.w3.org/2000/svg" xmlns:xlink="http://www.w3.org/1999/xlink" width="32" height="32" viewBox="0 0 32 32">
<path d="M13.438 7.938c-1.375 0-2.75 0.563-3.75 1.563s-1.563 2.375-1.563 3.75c0 1.438 0.563 2.75 1.563 3.75s2.375 1.563 3.75 1.563c1.438 0 2.75-0.563 3.75-1.563s1.563-2.313 1.563-3.75c0-1.375-0.563-2.75-1.563-3.75s-2.313-1.563-3.75-1.563zM0 0v32h32v-32h-32zM24.063 26.313l-6.313-6.313c-1.25 0.813-2.75 1.25-4.313 1.25-2.125 0-4.125-0.813-5.625-2.313-1.5-1.563-2.375-3.563-2.375-5.688s0.875-4.125 2.375-5.625 3.5-2.375 5.625-2.375 4.125 0.875 5.688 2.375c1.5 1.5 2.313 3.5 2.313 5.625 0 1.563-0.438 3.063-1.25 4.313l6.313 6.313z"></path>
</svg>
