<?xml version="1.0" encoding="utf-8"?>
<!-- Generated by IcoMoon.io -->
<!DOCTYPE svg PUBLIC "-//W3C//DTD SVG 1.1//EN" "http://www.w3.org/Graphics/SVG/1.1/DTD/svg11.dtd">
<svg version="1.1" xmlns="http://www.w3.org/2000/svg" xmlns:xlink="http://www.w3.org/1999/xlink" width="32" height="32" viewBox="0 0 32 32">
<path d="M29.938 7.25c-1 0.438-2.125 0.75-3.25 0.875v-0.063c1.188-0.688 2.125-1.813 2.563-3.125-0.375 0.188-2 1.125-3.688 1.438-1.063-1.125-2.563-1.875-4.313-1.875-3.625 0-5.875 2.938-5.875 5.813 0 0.25 0.125 1.188 0.125 1.25-4.813-0.125-9.125-2.438-11.938-6.063-2 3.625 0.125 6.75 1.563 7.875-0.875 0-1.625-0.188-2.375-0.5 0.188 2.813 2.188 5.063 4.813 5.625-1.063 0.313-2.313 0.125-2.813-0.063 0.813 2.375 2.938 4.063 5.5 4.188-3.938 2.875-8.188 2.563-8.25 2.563 2.5 1.5 5.438 2.375 8.5 2.375 11.438-0.063 17.25-10.188 16.563-17.438 1.25-0.563 2.25-1.625 2.875-2.875z"></path>
</svg>
