<?xml version="1.0" encoding="utf-8"?>
<!-- Generated by IcoMoon.io -->
<!DOCTYPE svg PUBLIC "-//W3C//DTD SVG 1.1//EN" "http://www.w3.org/Graphics/SVG/1.1/DTD/svg11.dtd">
<svg version="1.1" xmlns="http://www.w3.org/2000/svg" xmlns:xlink="http://www.w3.org/1999/xlink" width="32" height="32" viewBox="0 0 32 32">
<path d="M23.5 15.438h-15c-2.375 0-4.313 1.938-4.313 4.313v3.5c0 2.375 1.938 4.313 4.313 4.313h15c2.375 0 4.313-1.938 4.313-4.313v-3.5c0-2.375-1.938-4.313-4.313-4.313zM11.688 18.125h-1.438v6.938h-1.313v-6.938h-1.375v-1.125h4.125v1.125zM15.563 25.063h-1.188v-0.625c-0.188 0.188-0.438 0.375-0.688 0.5-0.188 0.125-0.438 0.188-0.688 0.188s-0.438-0.063-0.625-0.25c-0.125-0.188-0.188-0.438-0.188-0.813v-4.938h1.188v4.563c0 0.125 0 0.25 0.063 0.313s0.125 0.063 0.25 0.063 0.188 0 0.313-0.125c0.188-0.063 0.313-0.188 0.375-0.313v-4.5h1.188v5.938zM19.938 23.813c0 0.438-0.125 0.75-0.313 1-0.188 0.188-0.438 0.313-0.813 0.313-0.188 0-0.438 0-0.625-0.125-0.188-0.063-0.313-0.188-0.5-0.375v0.438h-1.188v-8.063h1.188v2.563c0.188-0.188 0.313-0.313 0.5-0.375 0.188-0.125 0.375-0.188 0.563-0.188 0.375 0 0.688 0.125 0.875 0.375 0.188 0.313 0.313 0.625 0.313 1.125v3.313zM24.063 22.25h-2.313v1.125c0 0.313 0.063 0.5 0.125 0.625 0.125 0.125 0.25 0.188 0.438 0.188s0.313-0.063 0.375-0.188c0.125-0.063 0.125-0.313 0.125-0.625v-0.313h1.25v0.313c0 0.625-0.125 1.063-0.438 1.375s-0.75 0.5-1.375 0.5c-0.5 0-0.938-0.188-1.25-0.5s-0.438-0.813-0.438-1.375v-2.688c0-0.5 0.125-0.938 0.5-1.25 0.313-0.313 0.75-0.5 1.313-0.5 0.5 0 0.938 0.188 1.25 0.438 0.313 0.313 0.438 0.75 0.438 1.313v1.563zM22.313 20c-0.188 0-0.313 0.063-0.438 0.125-0.063 0.125-0.125 0.313-0.125 0.563v0.625h1.063v-0.625c0-0.25 0-0.438-0.125-0.563-0.063-0.063-0.188-0.125-0.375-0.125zM18.188 20h-0.25c-0.063 0.063-0.188 0.125-0.25 0.188v3.75c0.125 0.063 0.188 0.188 0.313 0.188 0.063 0.063 0.188 0.063 0.25 0.063 0.188 0 0.25 0 0.313-0.125 0.063-0.063 0.125-0.188 0.125-0.375v-3.125c0-0.188-0.063-0.313-0.125-0.438s-0.188-0.125-0.375-0.125zM10.5 13.375h1.5v-3.688l1.75-5.25h-1.563l-0.938 3.563h-0.063l-1-3.563h-1.5l1.813 5.438v3.5zM15.813 13.563c0.625 0 1.063-0.188 1.438-0.5 0.313-0.313 0.5-0.75 0.5-1.313v-3.375c0-0.5-0.188-0.938-0.5-1.25-0.375-0.313-0.813-0.5-1.375-0.5-0.625 0-1.125 0.188-1.5 0.438-0.313 0.313-0.5 0.75-0.5 1.25v3.375c0 0.563 0.188 1.063 0.5 1.375 0.375 0.313 0.813 0.5 1.438 0.5zM15.25 8.25c0-0.125 0.063-0.25 0.125-0.313 0.125-0.125 0.25-0.188 0.438-0.188s0.313 0.063 0.438 0.188c0.063 0.063 0.125 0.188 0.125 0.313v3.563c0 0.188-0.063 0.375-0.125 0.438-0.125 0.125-0.25 0.188-0.438 0.188s-0.313-0.063-0.438-0.188c-0.063-0.063-0.125-0.25-0.125-0.438v-3.563zM19.813 13.5c0.25 0 0.5-0.125 0.75-0.25s0.5-0.313 0.75-0.625v0.75h1.375v-6.563h-1.375v5c-0.125 0.125-0.25 0.25-0.375 0.313-0.188 0.125-0.313 0.188-0.375 0.188-0.125 0-0.25-0.063-0.313-0.125s-0.063-0.188-0.063-0.313v-5.063h-1.313v5.5c0 0.375 0.063 0.688 0.188 0.875 0.188 0.188 0.438 0.313 0.75 0.313z"></path>
</svg>
