<?xml version="1.0" encoding="UTF-8" standalone="no"?>
<!DOCTYPE svg PUBLIC "-//W3C//DTD SVG 20010904//EN"
              "http://www.w3.org/TR/2001/REC-SVG-20010904/DTD/svg10.dtd">

<svg xmlns="http://www.w3.org/2000/svg"
     width="4.51389in" height="4.51389in"
     viewBox="0 0 325 325">
  <path id="Selection #2"
        stroke-width="1"
        d="M 219.99,45.17
           C 239.04,62.63 242.01,99.70 233.82,123.00
             230.16,133.41 224.74,141.44 215.00,147.12
             212.69,148.48 203.09,151.99 203.62,155.00
             204.06,157.50 214.25,161.74 217.00,163.76
             225.41,169.94 231.24,178.23 234.76,188.00
             239.66,201.61 239.02,212.96 239.00,227.00
             238.97,247.74 231.29,269.43 213.00,280.77
             194.04,292.52 173.36,292.25 152.00,292.00
             136.68,291.82 116.61,285.59 106.18,273.99
             99.79,266.87 95.71,256.23 93.58,247.00
             89.09,227.52 89.39,199.42 97.59,181.00
             102.09,170.90 106.77,166.68 116.00,161.06
             118.33,159.64 125.80,156.73 125.80,153.93
             125.80,150.67 117.67,148.10 115.00,146.57
             106.36,141.62 101.52,136.13 97.59,127.00
             94.73,120.37 93.75,113.12 92.95,106.00
             90.81,86.84 93.98,59.44 109.17,45.81
             122.85,33.53 137.70,31.04 155.00,28.42
             176.09,25.85 203.93,30.46 219.99,45.17 Z
           M 145.90,77.00
           C 144.52,80.96 144.05,84.84 144.00,89.00
             143.82,104.63 140.02,132.15 161.00,135.68
             163.36,136.07 166.64,136.07 169.00,135.68
             184.17,133.13 187.84,117.18 188.00,104.00
             188.14,92.04 186.83,69.66 174.00,64.23
             170.08,62.57 164.18,62.86 160.00,63.33
             152.49,65.20 148.42,69.77 145.90,77.00 Z
           M 141.72,198.00
           C 139.50,213.42 139.83,215.66 141.72,231.00
             143.52,245.62 146.61,256.82 164.00,257.00
             166.50,257.02 169.59,257.06 172.00,256.47
             181.45,254.18 186.39,243.88 187.89,235.00
             187.89,235.00 187.89,227.00 187.89,227.00
             189.31,209.15 191.90,173.64 166.00,173.20
             163.32,172.95 161.65,173.03 159.00,173.20
             147.28,177.06 143.35,186.80 141.72,198.00 Z" />
</svg>
