<?xml version="1.0" encoding="UTF-8" standalone="no"?>
<!DOCTYPE svg PUBLIC "-//W3C//DTD SVG 20010904//EN"
              "http://www.w3.org/TR/2001/REC-SVG-20010904/DTD/svg10.dtd">

<svg xmlns="http://www.w3.org/2000/svg"
     width="4.51389in" height="4.51389in"
     viewBox="0 0 325 325">
  <path id="Selection #5"
        stroke-width="1"
        d="M 144.34,252.96
           C 153.07,263.13 169.50,261.85 177.20,251.00
             182.66,243.30 183.45,233.09 184.09,224.00
             184.09,224.00 185.00,214.00 185.00,214.00
             185.00,214.00 184.09,188.00 184.09,188.00
             183.51,179.69 182.73,170.41 178.47,163.00
             170.56,149.23 153.34,150.19 144.70,163.00
             140.42,169.34 141.06,176.66 138.28,179.40
             136.30,181.35 132.59,180.99 130.00,181.00
             130.00,181.00 104.00,181.00 104.00,181.00
             101.59,181.00 95.40,181.40 93.60,179.98
             91.62,178.41 92.00,174.30 92.00,172.00
             92.00,172.00 92.00,139.00 92.00,139.00
             92.00,139.00 93.00,124.00 93.00,124.00
             93.00,124.00 93.00,106.00 93.00,106.00
             93.00,106.00 94.00,89.00 94.00,89.00
             94.00,89.00 95.00,39.00 95.00,39.00
             95.06,30.87 96.27,31.02 104.00,31.00
             104.00,31.00 197.00,31.00 197.00,31.00
             197.00,31.00 219.00,31.00 219.00,31.00
             220.95,31.04 223.63,30.90 224.98,32.60
             226.23,34.19 226.00,38.01 226.00,40.00
             226.00,40.00 226.00,61.00 226.00,61.00
             225.96,62.95 226.10,65.63 224.40,66.98
             222.81,68.23 218.99,68.00 217.00,68.00
             217.00,68.00 164.00,68.00 164.00,68.00
             160.52,68.00 146.42,67.26 144.31,68.77
             141.21,70.99 142.04,77.54 142.00,81.00
             142.00,81.00 141.00,95.00 141.00,95.00
             141.00,95.00 140.17,122.00 140.17,122.00
             139.92,124.59 138.57,134.71 141.33,135.66
             144.09,136.62 150.46,129.81 153.00,128.05
             160.50,122.88 169.03,121.01 178.00,121.00
             186.05,120.99 191.13,120.94 199.00,123.52
             236.63,135.85 234.37,188.14 234.00,220.00
             233.87,230.98 229.98,250.33 224.88,260.00
             208.21,291.63 178.46,293.36 147.00,293.00
             124.37,292.73 101.43,281.86 92.77,260.00
             88.94,250.33 89.00,242.10 89.00,232.00
             89.00,232.00 138.00,232.00 138.00,232.00
             138.60,239.40 139.30,247.08 144.34,252.96 Z" />
</svg>
