<?xml version="1.0" encoding="UTF-8" standalone="no"?>
<!DOCTYPE svg PUBLIC "-//W3C//DTD SVG 20010904//EN"
              "http://www.w3.org/TR/2001/REC-SVG-20010904/DTD/svg10.dtd">

<svg xmlns="http://www.w3.org/2000/svg"
     width="4.51389in" height="4.51389in"
     viewBox="0 0 325 325">
  <path id="Selection #6"
        stroke-width="1"
        d="M 87.00,187.00
           C 87.02,175.01 93.95,163.92 98.40,153.00
             98.40,153.00 129.80,79.00 129.80,79.00
             129.80,79.00 143.43,47.00 143.43,47.00
             144.70,44.07 147.83,35.52 149.81,33.60
             151.85,31.62 155.36,32.01 158.00,32.00
             158.00,32.00 216.00,32.00 216.00,32.00
             216.00,32.00 216.00,157.00 216.00,157.00
             216.00,157.00 216.00,185.00 216.00,185.00
             216.00,185.00 217.60,193.40 217.60,193.40
             217.60,193.40 226.00,195.00 226.00,195.00
             226.00,195.00 237.00,195.00 237.00,195.00
             237.00,195.00 237.00,231.00 237.00,231.00
             220.33,231.00 216.19,229.09 216.00,239.00
             216.00,239.00 216.00,291.00 216.00,291.00
             216.00,291.00 169.00,291.00 169.00,291.00
             169.00,291.00 169.00,239.00 169.00,239.00
             168.85,230.85 166.22,231.01 159.00,231.00
             159.00,231.00 87.00,231.00 87.00,231.00
             87.00,231.00 87.00,187.00 87.00,187.00 Z
           M 158.32,108.00
           C 158.32,108.00 134.85,167.00 134.85,167.00
             134.85,167.00 126.70,187.00 126.70,187.00
             126.01,188.97 124.71,192.51 126.06,194.40
             127.47,196.37 131.82,196.00 134.00,196.00
             134.00,196.00 163.00,196.00 163.00,196.00
             165.50,196.00 169.30,196.36 171.15,194.40
             173.27,192.14 173.00,186.94 173.00,184.00
             173.00,184.00 173.00,148.00 173.00,148.00
             173.00,148.00 174.00,131.00 174.00,131.00
             174.00,131.00 174.00,98.00 174.00,98.00
             174.15,85.54 175.89,84.34 174.00,70.00
             166.90,80.31 162.75,95.98 158.32,108.00 Z" />
</svg>
