<?xml version="1.0" encoding="UTF-8" standalone="no"?>
<!DOCTYPE svg PUBLIC "-//W3C//DTD SVG 20010904//EN"
              "http://www.w3.org/TR/2001/REC-SVG-20010904/DTD/svg10.dtd">

<svg xmlns="http://www.w3.org/2000/svg"
     width="4.51389in" height="4.51389in"
     viewBox="0 0 325 325">
  <path id="Selection #1"
        stroke-width="1"
        d="M 148.53,252.93
           C 156.28,262.55 171.70,261.81 179.67,252.93
             187.88,243.73 188.29,226.69 189.09,215.00
             189.09,215.00 190.00,205.00 190.00,205.00
             190.00,205.00 190.00,188.00 190.00,188.00
             190.00,185.12 190.17,175.45 186.69,174.53
             184.52,173.96 181.63,176.58 180.00,177.76
             176.43,180.33 170.13,183.99 166.00,185.41
             147.62,191.70 126.32,190.59 111.00,177.68
             89.66,159.68 89.71,128.39 90.00,103.00
             90.07,97.04 91.11,93.70 92.20,88.00
             95.33,71.51 100.88,55.62 114.00,44.21
             126.29,33.52 141.25,30.06 157.00,28.91
             160.87,28.63 162.80,27.85 167.00,28.09
             176.03,28.60 187.64,30.25 196.00,33.63
             220.97,43.72 230.62,66.06 234.30,91.00
             234.30,91.00 235.96,99.00 235.96,99.00
             235.96,99.00 235.96,108.00 235.96,108.00
             235.96,108.00 238.00,144.00 238.00,144.00
             238.00,144.00 238.95,156.00 238.95,156.00
             238.95,156.00 238.95,173.00 238.95,173.00
             238.95,173.00 238.04,183.00 238.04,183.00
             238.04,183.00 238.04,195.00 238.04,195.00
             238.04,195.00 237.09,205.00 237.09,205.00
             235.75,224.49 235.20,235.28 227.55,254.00
             217.29,279.12 192.78,293.96 166.00,294.00
             166.00,294.00 152.00,294.00 152.00,294.00
             136.35,293.98 115.03,287.38 104.90,274.91
             97.34,265.61 96.36,256.13 94.20,245.00
             93.88,242.15 92.13,236.02 94.20,233.60
             95.57,231.62 99.71,232.00 102.00,232.00
             102.00,232.00 143.00,232.00 143.00,232.00
             143.01,239.62 143.49,246.72 148.53,252.93 Z
           M 140.96,98.00
           C 140.96,98.00 140.04,110.00 140.04,110.00
             140.04,110.00 141.00,124.00 141.00,124.00
             141.07,138.47 145.80,155.57 163.00,155.99
             166.35,156.07 169.86,156.09 173.00,154.77
             184.59,149.92 187.98,132.25 188.00,121.00
             188.00,121.00 188.66,109.00 188.66,109.00
             188.66,109.00 188.00,98.00 188.00,98.00
             188.00,98.00 188.00,93.00 188.00,93.00
             187.94,88.04 186.13,79.50 184.10,75.00
             179.70,65.23 172.44,61.54 162.00,62.29
             142.31,65.33 141.67,81.79 140.96,98.00 Z" />
</svg>
