<?xml version="1.0" encoding="UTF-8" standalone="no"?>
<!DOCTYPE svg PUBLIC "-//W3C//DTD SVG 20010904//EN"
              "http://www.w3.org/TR/2001/REC-SVG-20010904/DTD/svg10.dtd">

<svg xmlns="http://www.w3.org/2000/svg"
     width="4.51389in" height="4.51389in"
     viewBox="0 0 325 325">
  <path id="Selection #9"
        stroke-width="1"
        d="M 105.00,81.00
           C 105.00,81.00 106.02,73.21 106.02,73.21
             106.02,73.21 114.00,67.19 114.00,67.19
             114.00,67.19 128.00,57.87 128.00,57.87
             128.00,57.87 144.91,43.00 144.91,43.00
             144.91,43.00 154.17,33.17 154.17,33.17
             154.17,33.17 169.00,32.00 169.00,32.00
             169.00,32.00 202.00,32.00 202.00,32.00
             202.00,32.00 202.00,291.00 202.00,291.00
             202.00,291.00 149.00,291.00 149.00,291.00
             149.00,291.00 149.00,102.00 149.00,102.00
             148.99,99.43 149.54,93.43 145.85,93.11
             143.11,92.87 136.37,98.61 134.00,100.37
             124.02,107.79 116.52,113.04 105.00,118.00
             105.00,118.00 105.00,81.00 105.00,81.00 Z" />
</svg>
