<?xml version="1.0" encoding="UTF-8" standalone="no"?>
<!DOCTYPE svg PUBLIC "-//W3C//DTD SVG 20010904//EN"
              "http://www.w3.org/TR/2001/REC-SVG-20010904/DTD/svg10.dtd">

<svg xmlns="http://www.w3.org/2000/svg"
     width="4.51389in" height="4.51389in"
     viewBox="0 0 325 325">
  <path id="Selection #3"
        stroke-width="1"
        d="M 94.00,45.00
           C 94.00,45.00 95.02,34.60 95.02,34.60
             95.02,34.60 103.00,33.00 103.00,33.00
             103.00,33.00 202.00,33.00 202.00,33.00
             202.00,33.00 224.00,33.00 224.00,33.00
             224.00,33.00 230.40,34.02 230.40,34.02
             230.40,34.02 232.00,42.00 232.00,42.00
             232.00,42.00 232.00,68.00 232.00,68.00
             232.00,68.00 227.91,86.00 227.91,86.00
             227.91,86.00 217.56,122.00 217.56,122.00
             217.56,122.00 183.20,241.00 183.20,241.00
             183.20,241.00 173.42,275.00 173.42,275.00
             173.42,275.00 168.15,290.40 168.15,290.40
             168.15,290.40 160.00,292.00 160.00,292.00
             160.00,292.00 113.00,292.00 113.00,292.00
             113.00,292.00 132.26,232.00 132.26,232.00
             132.26,232.00 167.19,123.00 167.19,123.00
             167.19,123.00 179.28,86.00 179.28,86.00
             180.23,82.92 183.45,75.06 181.89,72.31
             180.32,69.56 175.72,70.01 173.00,70.00
             173.00,70.00 94.00,70.00 94.00,70.00
             94.00,70.00 94.00,45.00 94.00,45.00 Z" />
</svg>
