<?xml version="1.0" encoding="UTF-8" standalone="no"?>
<!DOCTYPE svg PUBLIC "-//W3C//DTD SVG 20010904//EN"
              "http://www.w3.org/TR/2001/REC-SVG-20010904/DTD/svg10.dtd">

<svg xmlns="http://www.w3.org/2000/svg"
     width="4.51389in" height="4.51389in"
     viewBox="0 0 325 325">
  <path id="Selection #4"
        stroke-width="1"
        d="M 158.00,131.82
           C 165.87,128.01 175.33,126.91 184.00,127.00
             188.52,127.05 195.72,127.98 200.00,129.36
             227.52,138.21 234.07,161.21 237.28,187.00
             238.80,199.16 239.06,195.82 239.00,209.00
             239.00,209.00 237.28,227.00 237.28,227.00
             234.77,246.30 231.02,263.82 215.91,277.70
             208.88,284.17 197.24,289.64 188.00,292.08
             181.94,293.67 173.26,294.99 167.00,295.00
             153.21,295.02 142.06,295.00 129.00,289.28
             109.29,280.65 98.27,260.20 94.20,240.00
             92.54,231.77 90.01,211.14 90.00,203.00
             90.00,203.00 90.00,126.00 90.00,126.00
             90.00,126.00 92.06,111.00 92.06,111.00
             92.06,111.00 92.06,102.00 92.06,102.00
             94.80,81.53 102.18,60.13 118.00,46.18
             136.58,29.80 169.85,27.31 193.00,33.27
             203.14,35.88 211.15,38.72 218.91,46.17
             230.14,56.95 234.00,71.94 234.00,87.00
             234.00,87.00 192.00,87.00 192.00,87.00
             190.06,87.00 186.28,87.25 184.74,86.01
             181.98,83.78 184.26,78.25 179.15,71.04
             174.64,64.68 169.23,63.84 162.00,64.01
             151.53,64.27 144.98,71.44 141.90,81.00
             139.23,89.30 139.00,105.99 139.00,115.00
             139.00,124.31 138.35,133.81 140.00,143.00
             140.00,143.00 158.00,131.82 158.00,131.82 Z
           M 140.00,193.00
           C 140.00,193.00 140.00,207.00 140.00,207.00
             140.00,225.69 135.44,259.80 162.00,261.82
             174.27,262.75 182.76,254.43 185.48,243.00
             188.80,229.03 189.16,199.14 186.61,185.00
             185.04,176.27 184.80,169.47 176.98,163.42
             171.57,159.22 163.50,159.60 157.00,160.33
             143.13,163.79 140.15,180.61 140.00,193.00 Z" />
</svg>
