<?xml version="1.0" encoding="UTF-8" standalone="no"?>
<!DOCTYPE svg PUBLIC "-//W3C//DTD SVG 20010904//EN"
              "http://www.w3.org/TR/2001/REC-SVG-20010904/DTD/svg10.dtd">

<svg xmlns="http://www.w3.org/2000/svg"
     width="4.51389in" height="4.51389in"
     viewBox="0 0 325 325">
  <path id="Selection"
        stroke-width="1"
        d="M 234.00,28.14
           C 234.00,28.14 242.00,28.14 242.00,28.14
             248.13,28.01 255.99,29.29 262.00,30.68
             285.32,36.06 298.71,54.34 305.66,76.00
             310.67,91.62 311.97,105.73 312.00,122.00
             312.00,122.00 313.00,144.00 313.00,144.00
             313.00,144.00 314.00,159.00 314.00,159.00
             314.00,159.00 313.00,189.00 313.00,189.00
             313.00,189.00 312.04,199.00 312.04,199.00
             312.04,199.00 312.04,213.00 312.04,213.00
             311.85,225.12 307.27,244.94 302.33,256.00
             291.06,281.28 272.05,292.73 245.00,294.04
             245.00,294.04 236.00,294.68 236.00,294.68
             212.64,292.93 197.12,290.48 182.16,270.00
             173.29,257.87 168.22,239.83 166.29,225.00
             166.29,225.00 165.72,217.00 165.72,217.00
             165.72,217.00 164.00,202.00 164.00,202.00
             164.00,202.00 164.00,168.00 164.00,168.00
             164.00,168.00 164.00,123.00 164.00,123.00
             164.01,114.39 164.69,116.09 165.70,109.00
             165.70,109.00 166.29,101.00 166.29,101.00
             167.11,94.67 169.25,85.12 171.12,79.00
             176.64,60.94 184.81,45.75 202.00,36.31
             210.84,31.46 218.26,30.02 228.00,28.14
             228.00,28.14 234.00,28.14 234.00,28.14 Z
           M 8.00,79.00
           C 8.00,79.00 8.99,71.63 8.99,71.63
             8.99,71.63 17.00,66.19 17.00,66.19
             17.00,66.19 31.00,56.58 31.00,56.58
             31.00,56.58 47.83,42.00 47.83,42.00
             47.83,42.00 57.04,32.17 57.04,32.17
             57.04,32.17 72.00,31.00 72.00,31.00
             72.00,31.00 105.00,31.00 105.00,31.00
             105.00,31.00 105.00,290.00 105.00,290.00
             105.00,290.00 58.00,290.00 58.00,290.00
             50.51,289.86 51.01,287.74 51.00,281.00
             51.00,281.00 51.00,105.00 51.00,105.00
             51.00,102.40 52.10,94.21 50.36,92.73
             47.58,90.35 41.26,96.20 39.00,97.85
             28.76,105.32 19.72,111.95 8.00,117.00
             8.00,117.00 8.00,79.00 8.00,79.00 Z
           M 228.01,64.89
           C 216.99,71.94 214.02,93.86 214.00,106.00
             214.00,106.00 214.00,199.00 214.00,199.00
             214.00,213.22 212.85,235.29 219.28,248.00
             226.30,261.90 244.80,263.80 254.78,252.00
             260.19,245.59 261.96,233.22 262.00,225.00
             262.00,225.00 263.00,206.00 263.00,206.00
             263.00,206.00 263.00,109.00 263.00,109.00
             263.00,109.00 262.09,97.00 262.09,97.00
             261.34,86.14 260.02,70.18 248.99,64.31
             245.93,62.69 240.44,62.25 237.00,62.32
             233.79,62.77 230.82,63.09 228.01,64.89 Z" />
</svg>
