<?xml version="1.0" encoding="UTF-8" standalone="no"?>
<!DOCTYPE svg PUBLIC "-//W3C//DTD SVG 20010904//EN"
              "http://www.w3.org/TR/2001/REC-SVG-20010904/DTD/svg10.dtd">

<svg xmlns="http://www.w3.org/2000/svg"
     width="4.51389in" height="4.51389in"
     viewBox="0 0 325 325">
  <path id="Selection #7"
        stroke-width="1"
        d="M 104.30,47.17
           C 110.98,40.18 120.88,36.02 130.00,33.42
             139.36,30.75 144.40,30.39 154.00,29.96
             154.00,29.96 162.00,29.18 162.00,29.18
             162.00,29.18 169.00,29.91 169.00,29.91
             188.59,31.25 210.36,33.81 223.08,51.00
             235.56,67.86 235.09,85.27 235.00,105.00
             234.95,114.48 232.03,126.71 227.42,135.00
             223.09,142.78 218.84,146.60 211.00,150.68
             209.00,151.72 203.15,153.30 203.62,156.09
             204.11,159.00 208.69,160.45 211.00,161.46
             216.87,164.03 221.52,167.23 225.83,172.00
             234.89,182.04 236.75,192.18 238.28,205.00
             238.28,205.00 239.66,219.00 239.66,219.00
             239.66,219.00 238.28,232.00 238.28,232.00
             236.20,249.36 232.29,265.36 218.99,277.91
             206.66,289.53 184.74,295.97 168.00,296.00
             168.00,296.00 151.00,296.00 151.00,296.00
             142.66,295.99 141.90,295.23 134.00,293.60
             121.59,291.04 108.56,284.97 100.47,275.00
             88.78,260.62 88.00,241.62 88.00,224.00
             88.00,224.00 138.00,224.00 138.00,224.00
             138.00,240.52 140.62,259.06 161.00,260.68
             164.46,260.95 168.83,260.05 172.00,258.64
             187.89,251.58 187.07,228.64 187.00,214.00
             186.97,207.93 185.57,197.49 183.10,192.00
             175.33,174.77 155.80,176.00 140.00,176.00
             140.00,176.00 140.00,137.00 140.00,137.00
             140.00,137.00 155.00,137.00 155.00,137.00
             159.19,136.95 166.22,136.16 170.00,134.44
             183.47,128.31 185.14,110.07 185.00,97.00
             184.84,82.97 181.48,63.44 164.00,63.01
             144.90,62.55 141.14,79.33 141.00,95.00
             141.00,95.00 91.00,95.00 91.00,95.00
             91.00,78.24 91.92,60.13 104.30,47.17 Z" />
</svg>
