<?xml version="1.0" encoding="UTF-8" standalone="no"?>
<!DOCTYPE svg PUBLIC "-//W3C//DTD SVG 20010904//EN"
              "http://www.w3.org/TR/2001/REC-SVG-20010904/DTD/svg10.dtd">

<svg xmlns="http://www.w3.org/2000/svg"
     width="4.51389in" height="4.51389in"
     viewBox="0 0 325 325">
  <path id="Selection #8"
        stroke-width="1"
        d="M 89.00,258.00
           C 89.02,247.14 93.39,244.34 100.00,236.00
             100.00,236.00 118.58,212.00 118.58,212.00
             118.58,212.00 135.45,190.00 135.45,190.00
             147.30,175.16 159.36,160.13 169.42,144.00
             180.00,127.05 188.10,112.51 188.00,92.00
             187.98,86.99 187.51,82.46 184.92,78.00
             183.18,75.01 179.97,71.78 177.00,70.01
             173.57,67.96 170.84,68.00 167.00,68.00
             153.15,68.00 147.15,76.41 144.13,89.00
             141.09,101.68 146.40,105.80 136.00,106.00
             136.00,106.00 102.00,106.00 102.00,106.00
             99.88,106.00 96.26,106.23 94.51,104.98
             90.70,102.26 92.77,92.17 93.28,88.00
             95.21,72.39 100.18,57.82 113.00,47.67
             136.91,28.75 182.48,27.01 209.00,41.52
             226.19,50.92 237.77,69.27 238.00,89.00
             238.00,89.00 238.00,104.00 238.00,104.00
             237.99,112.25 237.42,113.22 235.47,121.00
             229.87,143.42 222.29,155.33 209.20,174.00
             209.20,174.00 172.25,222.00 172.25,222.00
             172.25,222.00 159.91,236.00 159.91,236.00
             152.38,244.08 146.34,247.97 141.00,258.00
             141.00,258.00 178.00,259.00 178.00,259.00
             178.00,259.00 241.00,259.00 241.00,259.00
             241.00,259.00 242.00,285.00 242.00,285.00
             242.00,285.00 240.98,292.40 240.98,292.40
             240.98,292.40 233.00,294.00 233.00,294.00
             233.00,294.00 89.00,294.00 89.00,294.00
             89.00,294.00 89.00,258.00 89.00,258.00 Z" />
</svg>
