<?xml version="1.0" encoding="utf-8"?>
<!DOCTYPE svg PUBLIC "-//W3C//DTD SVG 1.1//EN" "http://www.w3.org/Graphics/SVG/1.1/DTD/svg11.dtd">
<svg version="1.1" xmlns="http://www.w3.org/2000/svg" xmlns:xlink="http://www.w3.org/1999/xlink" x="0px" y="0px" viewBox="0 0 50 67" style="enable-background:new 0 0 50 67;" xml:space="preserve">
<g>
	<rect x="20" y="141.3" class="st0" width="10.1" height="0.1"></rect>
	<path class="st1" d="M41.3,1.9h-5.9l0,6.1c0,0-3.6-5-10.3-5c-6.7,0-10.3,5-10.3,5l0-6.1H8.9L8.4,31.7h33.3L41.3,1.9z M20,27.6h-4.1
		V12.8H20V27.6z M27.2,27.6h-4.1V11.3c0,0,0.3-1.6,2-1.6c1.7,0,2,1.6,2,1.6V27.6z M34.3,27.6h-4.1V12.8h4.1V27.6z"></path>
	<path class="st1" d="M20.4,33.2v9.7h9.5v-9.7H20.4z M25.9,39h-1.5v-1.5v-2.2h1.5v2.2h2.2V39H25.9z"></path>
	<polygon class="st1" points="18.8,133.8 18.8,44.4 8.2,44.4 6.8,133.8 	"></polygon>
	<rect x="25.9" y="44.4" class="st1" width="4" height="89.3"></rect>
	<polygon class="st1" points="31.4,42.9 42,42.9 41.8,33.2 31.4,33.2 	"></polygon>
	<polygon class="st1" points="18.8,33.2 8.4,33.2 8.3,42.9 18.8,42.9 	"></polygon>
	<polygon class="st1" points="31.4,133.8 43.5,133.8 42,44.4 31.4,44.4 	"></polygon>
	<rect x="20.4" y="44.4" class="st1" width="4" height="89.3"></rect>
	<rect x="3.9" y="141.4" class="st1" width="14.7" height="22.3"></rect>
	<rect x="20" y="141.4" class="st1" width="10.1" height="4.8"></rect>
	<rect x="20" y="147.7" class="st1" width="10.1" height="16"></rect>
	<rect x="31.5" y="141.4" class="st1" width="14.6" height="22.3"></rect>
	<rect x="1.7" y="135.8" class="st1" width="46.5" height="4"></rect>
	<rect x="1.7" y="165.5" class="st1" width="46.5" height="4"></rect>
</g>
</svg>