<?xml version="1.0" encoding="utf-8"?>
<!DOCTYPE svg PUBLIC "-//W3C//DTD SVG 1.1//EN" "http://www.w3.org/Graphics/SVG/1.1/DTD/svg11.dtd">
<svg xmlns="http://www.w3.org/2000/svg" height="38" width="38" viewBox="0 0 88.9 88.9">
<title>Think and Do The Extraordinary</title>
<path class="a" d="M44.46,0A44.45,44.45,0,1,0,88.9,44.46v0A44.45,44.45,0,0,0,44.46,0ZM71,35,67.2,46.82l-5.92,6.79L58,68.19l.53,2L60,69.55l1.73.79v2.47H56.11l-1.65-5.93,1.15-.6.16-10.43L39.89,53.43l-3.6,5.67L29,64.61l1,5.58L32,69l2.35,1.35V72.8H27.21L25,63.09l1.59-.82L29.85,58l-2.4-4.22L25.32,59.2l-5.13,3.4-6.29-.13L9.6,57.92l8.06-2.32,6.13-9,2.69-1.63,2.68-4.25,5.63-2,15.73-.75,5.59-3.83L58,30.78l-1.2-.12a.83.83,0,0,1-.46-1.44h0l3.77-2.93,3-3.66,2.12.23,4-4,1.23,2.9L70.25,24l.93-.89.5,1.18-1.8,5.39Z"></path>
</svg>