<?xml version="1.0" encoding="utf-8"?>
<!DOCTYPE svg PUBLIC "-//W3C//DTD SVG 1.1//EN" "http://www.w3.org/Graphics/SVG/1.1/DTD/svg11.dtd">
<svg version="1.1" xmlns="http://www.w3.org/2000/svg" xmlns:xlink="http://www.w3.org/1999/xlink" x="0px" y="0px" width="150px" height="150px" viewBox="0 0 64 64" enable-background="new 0 0 64 64" xml:space="preserve" class="svg-icon">
<g>
	<path d="M4.102,21.494l0.45,0.451c-0.607,0.902-1.013,1.9-1.214,2.931H2.7c-0.408,0-0.739,0.331-0.739,0.739v1.605
		c0,0.409,0.331,0.739,0.739,0.739h0.637c0.201,1.03,0.606,2.028,1.214,2.931l-0.451,0.452c-0.289,0.289-0.289,0.756,0,1.045
		l1.135,1.136c0.289,0.288,0.756,0.288,1.045,0l0.451-0.451c0.902,0.608,1.901,1.014,2.931,1.215v0.638
		c0,0.408,0.331,0.738,0.739,0.738h1.605c0.409,0,0.739-0.33,0.739-0.738v-0.638c1.031-0.201,2.029-0.606,2.932-1.215l0.451,0.451
		c0.289,0.288,0.757,0.288,1.045,0l1.135-1.136c0.289-0.289,0.289-0.756,0-1.045l-0.451-0.452c0.608-0.902,1.014-1.9,1.215-2.931
		h0.637c0.408,0,0.739-0.331,0.739-0.739v-1.605c0-0.409-0.331-0.739-0.739-0.739h-0.637c-0.201-1.031-0.606-2.029-1.214-2.931
		l0.451-0.451c0.289-0.289,0.289-0.757,0-1.045l-1.135-1.135c-0.289-0.289-0.756-0.288-1.045,0l-0.451,0.451
		c-0.903-0.608-1.901-1.014-2.932-1.214l0-0.637c0-0.409-0.331-0.74-0.739-0.74h-1.605c-0.409,0-0.739,0.331-0.739,0.74v0.637
		c-1.03,0.201-2.029,0.606-2.931,1.214l-0.451-0.451c-0.289-0.288-0.756-0.289-1.045,0l-1.135,1.135
		C3.812,20.738,3.812,21.206,4.102,21.494z M13.935,23.688c1.507,1.507,1.507,3.951,0,5.458c-1.507,1.507-3.952,1.507-5.458,0
		c-1.508-1.508-1.508-3.952,0-5.459C9.983,22.181,12.427,22.181,13.935,23.688z"></path>
	<path d="M19.169,31.747l0.544,0.673c-0.614,0.676-1.116,1.417-1.512,2.198l-0.822-0.267
		c-0.388-0.126-0.805,0.086-0.932,0.475l-0.496,1.526c-0.126,0.389,0.086,0.806,0.475,0.932l0.824,0.268
		c-0.141,0.882-0.165,1.779-0.07,2.666l-0.836,0.225c-0.394,0.105-0.628,0.511-0.523,0.904l0.416,1.551
		c0.106,0.395,0.512,0.629,0.906,0.523l0.834-0.225c0.287,0.648,0.643,1.272,1.073,1.86l-0.61,0.61
		c-0.289,0.289-0.289,0.757,0,1.045l1.135,1.135c0.289,0.289,0.756,0.289,1.045,0l0.61-0.609c0.733,0.537,1.523,0.959,2.346,1.271
		l-0.18,0.846c-0.085,0.4,0.17,0.792,0.569,0.877l1.569,0.334c0.399,0.084,0.793-0.17,0.878-0.569l0.18-0.847
		c0.891,0.049,1.784-0.022,2.658-0.209l0.312,0.808c0.146,0.381,0.572,0.571,0.954,0.425l1.499-0.575
		c0.381-0.147,0.571-0.573,0.425-0.955l-0.31-0.806c0.75-0.432,1.457-0.966,2.098-1.606c0.007-0.007,0.012-0.013,0.018-0.019
		l0.701,0.508c0.33,0.24,0.792,0.167,1.032-0.164l0.943-1.298c0.24-0.331,0.166-0.792-0.164-1.032l-0.698-0.508
		c0.412-0.803,0.708-1.649,0.889-2.516l0.864,0.045c0.408,0.021,0.756-0.291,0.776-0.699l0.084-1.603
		c0.021-0.408-0.292-0.755-0.699-0.776l-0.863-0.046c-0.091-0.884-0.299-1.756-0.622-2.595l0.748-0.432
		c0.354-0.204,0.475-0.656,0.271-1.01l-0.803-1.391c-0.204-0.354-0.656-0.475-1.009-0.27l-0.749,0.432
		c-0.224-0.275-0.462-0.543-0.719-0.8c-0.384-0.384-0.791-0.728-1.216-1.037l0.392-0.77c0.186-0.364,0.04-0.809-0.323-0.994
		l-1.431-0.729c-0.363-0.186-0.809-0.041-0.994,0.323l-0.393,0.771c-0.853-0.278-1.734-0.442-2.623-0.486l-0.09-0.86
		c-0.043-0.406-0.406-0.701-0.812-0.658l-1.596,0.168c-0.407,0.042-0.701,0.406-0.658,0.812l0.09,0.861
		c-0.854,0.226-1.684,0.564-2.465,1.019l-0.544-0.67c-0.256-0.317-0.722-0.367-1.039-0.11l-1.248,1.01
		C18.961,30.964,18.913,31.43,19.169,31.747z M30.555,35.733c1.884,1.883,1.884,4.938,0,6.823c-1.884,1.884-4.939,1.884-6.823,0
		c-1.885-1.885-1.885-4.939,0-6.823C25.615,33.849,28.671,33.849,30.555,35.733z"></path>
	<path d="M39.3,17.792l0.521,0.645c-0.907,0.951-1.63,2.013-2.166,3.143l-0.784-0.255
		c-0.388-0.126-0.805,0.086-0.931,0.475l-0.496,1.527c-0.127,0.389,0.086,0.805,0.475,0.931l0.785,0.255
		c-0.235,1.259-0.268,2.548-0.099,3.816l-0.8,0.214c-0.393,0.106-0.628,0.511-0.522,0.905L35.699,31
		c0.106,0.394,0.512,0.627,0.905,0.522l0.796-0.213c0.4,0.973,0.935,1.903,1.601,2.765l-0.585,0.586
		c-0.289,0.289-0.289,0.757,0,1.046l1.135,1.135c0.288,0.289,0.756,0.288,1.045,0l0.586-0.585c1.034,0.799,2.166,1.41,3.353,1.826
		l-0.171,0.805c-0.085,0.399,0.17,0.791,0.568,0.877l1.571,0.334c0.399,0.084,0.791-0.171,0.876-0.57l0.172-0.811
		c1.273,0.104,2.559,0.006,3.807-0.295l0.296,0.77c0.146,0.381,0.573,0.571,0.954,0.425l1.499-0.575
		c0.382-0.146,0.571-0.574,0.425-0.955l-0.295-0.77c1.001-0.541,1.943-1.232,2.789-2.08c0.081-0.08,0.157-0.164,0.236-0.247
		l0.671,0.487c0.33,0.24,0.792,0.166,1.032-0.164l0.943-1.299c0.24-0.33,0.167-0.792-0.163-1.032l-0.669-0.486
		c0.622-1.137,1.047-2.354,1.273-3.599l0.826,0.043c0.407,0.021,0.755-0.292,0.776-0.7l0.085-1.604
		c0.021-0.407-0.292-0.754-0.699-0.776l-0.829-0.043c-0.096-1.267-0.391-2.521-0.886-3.712l0.713-0.413
		c0.354-0.204,0.475-0.656,0.271-1.009l-0.802-1.391c-0.205-0.354-0.656-0.474-1.01-0.271l-0.717,0.414
		c-0.321-0.418-0.669-0.823-1.052-1.206c-0.536-0.537-1.113-1.008-1.717-1.422l0.375-0.736c0.186-0.364,0.042-0.809-0.322-0.995
		l-1.431-0.728c-0.363-0.186-0.809-0.041-0.994,0.323l-0.374,0.735c-1.213-0.432-2.481-0.661-3.754-0.691l-0.087-0.825
		c-0.042-0.406-0.406-0.7-0.812-0.658l-1.596,0.168c-0.407,0.042-0.701,0.406-0.658,0.812l0.086,0.821
		c-1.229,0.291-2.42,0.779-3.526,1.461l-0.521-0.642c-0.257-0.317-0.722-0.366-1.039-0.109l-1.248,1.01
		C39.092,17.01,39.042,17.475,39.3,17.792z M52.616,22.638c2.262,2.261,2.262,5.927,0,8.188c-2.262,2.263-5.927,2.263-8.188,0
		c-2.262-2.261-2.262-5.927,0-8.188C46.689,20.376,50.354,20.376,52.616,22.638z"></path>
</g>
</svg>