<?xml version="1.0" encoding="utf-8"?>
<!DOCTYPE svg PUBLIC "-//W3C//DTD SVG 1.1//EN" "http://www.w3.org/Graphics/SVG/1.1/DTD/svg11.dtd">
<svg version="1.1" xmlns="http://www.w3.org/2000/svg" xmlns:xlink="http://www.w3.org/1999/xlink" x="0px" y="0px" width="100px" height="100px" viewBox="0 0 32 32" enable-background="new 0 0 32 32" xml:space="preserve">
	<g>
		<path d="M25.5,16.4l6.5-1.9l-16-9L0,14.6l2,0.5v0.9c-0.6,0.2-1,0.8-1,1.4c0,0.4,0.2,0.8,0.5,1.1V26H2v0.5h1V26h0.5
		v-7.4C3.8,18.3,4,17.9,4,17.5c0-0.7-0.4-1.2-1-1.4v-0.7l3.5,0.9v-0.9v-0.2l0.2-0.1c2-1.5,5.4-2.4,9.3-2.4s7.3,0.9,9.3,2.4l0.2,0.1
		v0.2V16.4z"></path>
		<g>
			<path d="M7,21.5h18c0,0,0-2,0-6c-4-3-14-3-18,0V21.5z"></path>
		</g>
	</g>
</svg>