<?xml version="1.0" encoding="utf-8"?>
<!DOCTYPE svg PUBLIC "-//W3C//DTD SVG 1.1//EN" "http://www.w3.org/Graphics/SVG/1.1/DTD/svg11.dtd">
<svg version="1.1" xmlns="http://www.w3.org/2000/svg" xmlns:xlink="http://www.w3.org/1999/xlink" x="0px" y="0px" viewBox="0 0 64 64" enable-background="new 0 0 64 64" xml:space="preserve" class="svg-icon">
<g>
	<polygon points="4.467,17.772 22.012,25.122 15.063,38.345 4.403,33.788 	"></polygon>
	<polygon points="58.347,17.772 40.802,25.122 47.751,38.345 58.411,33.788 	"></polygon>
	<g>
		<path d="M18.999,37.046c0.704-0.676,1.957-0.711,2.87-0.255c0.479,0.238,0.906,0.645,1.073,1.197
			c0.02-0.036,0.042-0.078,0.062-0.112c0.573-1.031,2.085-1.161,3.14-0.637c0.483,0.24,0.912,0.651,1.071,1.214
			c0.023-0.042,0.049-0.089,0.071-0.129c0.516-0.928,1.873-1.047,2.817-0.576c0.409,0.203,0.776,0.544,0.937,1.005
			c0.162-0.293,0.31-0.562,0.431-0.779c0.44-0.792,1.594-0.896,2.394-0.497c0.8,0.399,1.077,1.196,0.706,2.032
			c-0.036,0.071-0.074,0.146-0.113,0.218l3.092,1.677l-0.008,0.014c0.488,0.166,0.928,0.167,1.312,0
			c0.708-0.308,1.084-1.1,1.23-1.485l-4.492-2.436l0.281-0.52l4.382,2.375l0.01-0.035l0.342,0.228c0.736,0.488,1.44,0.58,2.04,0.265
			c0.65-0.344,1-1.069,1.007-1.608c0.003-0.192-0.036-0.539-0.334-0.707c-1.243-0.703-10.754-6.23-12.365-7.166
			c-0.577,0.403-1.247,0.899-1.906,1.387c-0.948,0.702-1.844,1.365-2.287,1.62c-0.19,0.11-0.396,0.159-0.605,0.159
			c-0.682,0-1.412-0.516-1.827-1.161c-0.564-0.877-0.432-1.799,0.337-2.347c1.032-0.736,4.211-3.021,6.32-4.539l-1.688-0.923
			c-0.955-0.41-2.896,0.271-4.824,1.706L18.53,37.542l0.052,0.046C18.671,37.366,18.811,37.181,18.999,37.046z"></path>
		<polygon points="17.162,38.874 23.833,26.18 22.691,25.7 16.05,38.399 		"></polygon>
		<polygon points="46.769,38.312 40.122,25.6 39.954,25.67 39.954,25.67 38.739,26.18 45.412,38.877 		"></polygon>
		<path d="M25.879,37.769c-0.791-0.394-1.967-0.309-2.359,0.396c-0.225,0.404-0.521,0.941-0.834,1.511
			c-0.026,0.051-0.052,0.101-0.077,0.15l-0.004-0.002c-0.003,0.006-0.006,0.012-0.01,0.019c0.118,0.337,0.499,1.245,1.265,1.575
			c0.512,0.222,1.123,0.147,1.815-0.222l0.043-0.022c0.042-0.078,0.085-0.156,0.129-0.236l-0.007-0.003
			c0.25-0.457,0.481-0.895,0.687-1.301C27.032,38.494,26.243,37.949,25.879,37.769z"></path>
		<path d="M33.28,24.524c-0.471,0.338-6.737,4.849-8.271,5.942c-0.728,0.52-0.37,1.254-0.183,1.546
			c0.389,0.604,1.173,1.079,1.64,0.81c0.413-0.238,1.296-0.892,2.23-1.584c0.787-0.583,1.6-1.185,2.244-1.623L31,29.702l0.015-0.024
			c0.112,0.065,11.247,6.538,12.595,7.301c0.084,0.047,0.158,0.106,0.227,0.17l-5.74-10.922
			C36.189,24.806,34.267,24.127,33.28,24.524z"></path>
		<path d="M32.699,42.712c-0.208,0.325-0.387,0.598-0.521,0.801c0.539-0.024,0.912-0.271,1.127-0.471L32.699,42.712z
			"></path>
		<path d="M19.214,37.721l-0.135,0.244c-0.017,0.088-0.022,0.17-0.021,0.235c0.008,0.539,0.356,1.265,1.008,1.608
			c0.59,0.311,1.284,0.225,2.008-0.246c0.028-0.051,0.055-0.101,0.083-0.15c0.035-0.067,0.07-0.136,0.104-0.203
			c0.512-1.153-0.287-1.706-0.655-1.889c-0.705-0.352-1.712-0.326-2.215,0.171l0.001,0.002c-0.004,0.003-0.006,0.006-0.011,0.008
			C19.317,37.566,19.26,37.64,19.214,37.721z"></path>
		<path d="M33.904,42.687c0.614,0.299,1.151,0.348,1.599,0.144c0.622-0.283,0.939-0.979,1.056-1.291l-2.38-1.291
			c-0.372,0.675-0.789,1.365-1.163,1.963l0.768,0.417L33.904,42.687z"></path>
		<path d="M30.052,43.655c0.403,0.15,0.884,0.096,1.429-0.163c0.268-0.396,1.7-2.54,2.556-4.236
			c0.325-0.734-0.133-1.099-0.436-1.25c-0.543-0.271-1.349-0.22-1.613,0.255c-0.635,1.143-2.034,3.706-2.034,3.706l-0.012-0.007
			c-0.196,0.345-0.404,0.704-0.624,1.076C29.443,43.229,29.679,43.518,30.052,43.655z"></path>
		<path d="M27.211,42.832c0.445,0.202,0.982,0.152,1.595-0.146l0.044-0.022c0.615-1.04,1.137-1.981,1.544-2.788
			c0.433-0.977-0.245-1.444-0.557-1.599c-0.684-0.342-1.7-0.271-2.036,0.334c-0.414,0.744-1.092,1.981-1.634,2.97
			C26.298,41.911,26.618,42.562,27.211,42.832z"></path>
	</g>
</g>
</svg>