<?xml version="1.0" encoding="utf-8"?>
<!DOCTYPE svg PUBLIC "-//W3C//DTD SVG 1.1//EN" "http://www.w3.org/Graphics/SVG/1.1/DTD/svg11.dtd">
<svg version="1.1" xmlns="http://www.w3.org/2000/svg" xmlns:xlink="http://www.w3.org/1999/xlink" x="0px" y="0px" width="200px" height="200px" viewBox="0 0 50 60" enable-background="new 0 0 50 60" xml:space="preserve" class="svg-icon">
<g>
	<g>
		<g>
			<path d="M32.7,36.4c0.8,2.6,0.2,5.5-1.7,7.4l-12.1,0.1c-2.2-4.5-2.6-9.5-1.3-14.4c0.8-3,2.2-5.7,4.2-7.9l4.7,8.4
				l1.9-1.1l2.1,3.8l5.3-3.3l-2.1-3.7l1.7-1L23.7,2.9l-9.3,5.3l4.1,7.5c-3.4,3.3-5.8,7.4-7.1,12.1c-1.5,5.4-1.3,11,0.6,16.1l-9.7,0
				v6h29.9l0,0.1c0,0,0.1-0.1,0.1-0.1h15.5v-6.1H37.7c1.4-3.2,1.4-6.9,0-10.2"></path>
			<polygon points="23.3,2.3 22.1,0 12.7,5.3 14,7.6 			"></polygon>
		</g>
		
			<rect x="33.3" y="26.6" transform="matrix(-0.496 -0.8683 0.8683 -0.496 22.3478 79.8657)"  width="2.2" height="13.6"></rect>
	</g>
</g>
</svg>
